<svg width="196" height="77" viewBox="0 0 196 77" fill="none" xmlns="http://www.w3.org/2000/svg">
<circle cx="22.9117" cy="34.3082" r="13.3683" fill="white" fill-opacity="0.5"/>
<g filter="url(#filter0_d_7751_26157)">
<circle cx="16.8978" cy="47.0054" r="7.35439" fill="white"/>
<mask id="mask0_7751_26157" style="mask-type:alpha" maskUnits="userSpaceOnUse" x="16" y="21" width="2" height="21">
<path fill-rule="evenodd" clip-rule="evenodd" d="M16.0892 41.4079L16.0892 21.6981L17.7286 21.6981L17.7286 41.4079L16.0892 41.4079Z" fill="white"/>
</mask>
<g mask="url(#mask0_7751_26157)">
<path d="M36.2801 34.3087C36.2801 41.6918 30.2949 47.677 22.9118 47.677C15.5287 47.677 9.54346 41.6918 9.54346 34.3087C9.54346 26.9255 15.5287 20.9403 22.9118 20.9403C30.2949 20.9403 36.2801 26.9255 36.2801 34.3087Z" fill="white"/>
</g>
</g>
<g filter="url(#filter1_dd_7751_26157)">
<path d="M49.3638 50.2725V24.8986H54.4023C57.0122 24.8986 59.0421 25.4423 60.492 26.5298C61.942 27.6172 62.6669 29.1276 62.6669 31.0608C62.6669 32.4866 62.244 33.7069 61.3982 34.7219C60.5524 35.7127 59.3683 36.3893 57.8459 36.7518V36.9693C59.9241 37.2351 61.5432 37.9601 62.7032 39.1442C63.8873 40.3042 64.4793 41.7783 64.4793 43.5665C64.4793 45.6689 63.6698 47.3122 62.0507 48.4963C60.4316 49.6804 58.16 50.2725 55.236 50.2725H49.3638ZM54.4385 25.7686H51.8287V36.6431H54.4023C58.2205 36.6431 60.1295 34.8306 60.1295 31.2058C60.1295 27.581 58.2325 25.7686 54.4385 25.7686ZM55.236 37.513H51.8287V49.4025H55.236C59.6583 49.4025 61.8695 47.4209 61.8695 43.4578C61.8695 39.4946 59.6583 37.513 55.236 37.513Z" fill="white"/>
<path d="M69.9234 37.5855C69.9234 35.7248 70.2496 33.9969 70.9021 32.402C71.5787 30.7829 72.5091 29.3813 73.6932 28.1972C74.9015 26.9889 76.3031 26.0585 77.898 25.4061C79.5171 24.7294 81.2571 24.3911 83.1178 24.3911C84.9786 24.3911 86.7064 24.7294 88.3013 25.4061C89.9204 26.0585 91.322 26.9889 92.5061 28.1972C93.7144 29.3813 94.6448 30.7829 95.2973 32.402C95.9739 33.9969 96.3122 35.7248 96.3122 37.5855C96.3122 39.4463 95.9739 41.1862 95.2973 42.8053C94.6448 44.4002 93.7144 45.8018 92.5061 47.0101C91.322 48.1942 89.9204 49.1246 88.3013 49.8012C86.7064 50.4537 84.9786 50.7799 83.1178 50.7799C81.2571 50.7799 79.5171 50.4537 77.898 49.8012C76.3031 49.1246 74.9015 48.1942 73.6932 47.0101C72.5091 45.8018 71.5787 44.4002 70.9021 42.8053C70.2496 41.1862 69.9234 39.4463 69.9234 37.5855ZM72.6783 37.5855C72.6783 40.0504 73.1133 42.2132 73.9832 44.074C74.8532 45.9106 76.0735 47.3484 77.6443 48.3875C79.2151 49.4025 81.0396 49.91 83.1178 49.91C85.196 49.91 87.0205 49.4025 88.5913 48.3875C90.1621 47.3484 91.3824 45.8985 92.2524 44.0377C93.1224 42.177 93.5573 40.0262 93.5573 37.5855C93.5573 35.1448 93.1224 33.0061 92.2524 31.1696C91.3824 29.3088 90.1621 27.8589 88.5913 26.8198C87.0205 25.7806 85.196 25.2611 83.1178 25.2611C81.0396 25.2611 79.2151 25.7806 77.6443 26.8198C76.0977 27.8347 74.8773 29.2726 73.9832 31.1333C73.1133 32.9699 72.6783 35.1206 72.6783 37.5855Z" fill="white"/>
<path d="M103.913 24.8986H108.771C111.332 24.8986 113.314 25.4423 114.715 26.5298C116.141 27.5931 116.854 29.0913 116.854 31.0246C116.854 32.5228 116.407 33.7674 115.513 34.7582C114.643 35.7489 113.374 36.4135 111.707 36.7518V36.9693C113.302 37.2835 114.607 38.0326 115.622 39.2167C116.637 40.4008 117.398 41.8628 117.905 43.6028C118.364 45.1977 118.811 46.4422 119.246 47.3363C119.706 48.2063 120.201 48.8346 120.733 49.2213C121.288 49.6079 121.941 49.8858 122.69 50.055V50.2725H121.204C120.141 50.2725 119.258 50.0791 118.558 49.6925C117.881 49.3058 117.301 48.6534 116.818 47.7351C116.334 46.8168 115.875 45.5481 115.44 43.929C114.74 41.4399 113.809 39.6758 112.649 38.6367C111.489 37.5976 110.076 37.078 108.408 37.078H108.191V36.4256H108.408C112.299 36.4256 114.244 34.6373 114.244 31.0608C114.244 27.5326 112.42 25.7686 108.771 25.7686H106.378V50.2725H103.913V24.8986Z" fill="white"/>
<path d="M124.65 37.5855C124.65 35.7248 124.976 33.9969 125.629 32.402C126.305 30.7829 127.236 29.3813 128.42 28.1972C129.628 26.9889 131.03 26.0585 132.625 25.4061C134.244 24.7294 135.984 24.3911 137.844 24.3911C139.705 24.3911 141.433 24.7294 143.028 25.4061C144.647 26.0585 146.049 26.9889 147.233 28.1972C148.441 29.3813 149.371 30.7829 150.024 32.402C150.7 33.9969 151.039 35.7248 151.039 37.5855C151.039 39.4463 150.7 41.1862 150.024 42.8053C149.371 44.4002 148.441 45.8018 147.233 47.0101C146.049 48.1942 144.647 49.1246 143.028 49.8012C141.433 50.4537 139.705 50.7799 137.844 50.7799C135.984 50.7799 134.244 50.4537 132.625 49.8012C131.03 49.1246 129.628 48.1942 128.42 47.0101C127.236 45.8018 126.305 44.4002 125.629 42.8053C124.976 41.1862 124.65 39.4463 124.65 37.5855ZM127.405 37.5855C127.405 40.0504 127.84 42.2132 128.71 44.074C129.58 45.9106 130.8 47.3484 132.371 48.3875C133.942 49.4025 135.766 49.91 137.844 49.91C139.923 49.91 141.747 49.4025 143.318 48.3875C144.889 47.3484 146.109 45.8985 146.979 44.0377C147.849 42.177 148.284 40.0262 148.284 37.5855C148.284 35.1448 147.849 33.0061 146.979 31.1696C146.109 29.3088 144.889 27.8589 143.318 26.8198C141.747 25.7806 139.923 25.2611 137.844 25.2611C135.766 25.2611 133.942 25.7806 132.371 26.8198C130.824 27.8347 129.604 29.2726 128.71 31.1333C127.84 32.9699 127.405 35.1206 127.405 37.5855Z" fill="white"/>
<path d="M156.429 49.475L156.646 47.3001H156.864C157.806 48.1217 158.869 48.7621 160.054 49.2213C161.238 49.6804 162.41 49.91 163.57 49.91C165.213 49.91 166.542 49.4629 167.557 48.5688C168.572 47.6505 169.079 46.4301 169.079 44.9077C169.079 44.0619 168.886 43.2765 168.499 42.5516C168.137 41.8266 167.521 41.0895 166.651 40.3404C165.805 39.5913 164.633 38.7817 163.135 37.9118C162.096 37.3076 161.105 36.6793 160.162 36.0268C159.22 35.3502 158.447 34.5769 157.842 33.7069C157.238 32.8128 156.936 31.7495 156.936 30.5171C156.936 28.6805 157.601 27.2064 158.93 26.0948C160.259 24.959 162.011 24.3911 164.186 24.3911C165.153 24.3911 166.192 24.4999 167.303 24.7173C168.415 24.9107 169.273 25.1644 169.877 25.4786L169.696 27.5085H169.478C168.101 26.0102 166.337 25.2611 164.186 25.2611C162.639 25.2611 161.395 25.6598 160.452 26.4573C159.51 27.2306 159.039 28.2818 159.039 29.6109C159.039 30.6017 159.292 31.4595 159.8 32.1845C160.331 32.8853 161.008 33.5257 161.83 34.1057C162.651 34.6615 163.533 35.2052 164.476 35.7369C165.563 36.3652 166.615 37.0297 167.629 37.7305C168.669 38.4313 169.514 39.2771 170.167 40.2679C170.844 41.2345 171.182 42.4549 171.182 43.929C171.182 45.2823 170.868 46.4785 170.239 47.5176C169.611 48.5325 168.717 49.33 167.557 49.91C166.421 50.4899 165.092 50.7799 163.57 50.7799C162.603 50.7799 161.467 50.6591 160.162 50.4175C158.857 50.1758 157.613 49.8616 156.429 49.475Z" fill="white"/>
</g>
<rect x="50.342" y="59.3668" width="80.0374" height="17.0093" rx="8.26542" fill="#6079FF" fill-opacity="0.2"/>
<path d="M61.4126 69.8511C61.4042 69.2249 61.0285 68.5236 60.202 68.5236C59.8847 68.5236 59.5591 68.6739 59.4422 68.7323V70.9698C59.5591 71.0283 59.8847 71.1702 60.202 71.1702C61.0285 71.1702 61.4042 70.4689 61.4126 69.8511ZM58.4404 71.8715V65.9438H59.4422V68.0394C59.7345 67.7973 60.1269 67.7305 60.4942 67.7305C61.5211 67.7305 62.4061 68.4902 62.4061 69.8427C62.4061 71.212 61.5211 71.9634 60.4942 71.9634C60.1269 71.9634 59.5925 71.8047 59.3838 71.5626L59.3254 71.8715H58.4404ZM64.4105 71.763L62.7992 67.8306H63.8845L64.9031 70.6025L65.905 67.8306H66.9903C65.3205 72.0719 65.1536 72.4726 65.0617 72.7565C64.8113 73.4829 64.4272 73.5914 63.7008 73.5747H63.225V72.8149L63.6925 72.8066C63.9179 72.7899 64.0682 72.7231 64.1851 72.4309L64.4105 71.763Z" fill="white"/>
<path d="M76.0045 69.6173H74.6103V71.8715H73.6001V66.1191H76.0379C76.7226 66.1191 77.691 66.6868 77.691 67.8223C77.691 69.3418 76.589 69.6173 76.0045 69.6173ZM74.6103 68.7657H76.0129C76.2383 68.7657 76.6975 68.5737 76.6975 67.8223C76.6975 67.2963 76.3218 66.9791 76.0379 66.9791H74.6103V68.7657ZM83.3291 69.3335V70.6609C83.3291 70.853 83.3959 71.0199 83.7215 71.0199H85.984V71.8715H83.6714C82.7447 71.8465 82.3356 71.5626 82.3189 70.7027V66.1191H85.984V66.9707H83.3291V68.4819H85.8004V69.3335H83.3291ZM91.8289 67.6887V71.8715H90.8187V66.1191H91.8206C92.5887 67.0876 93.6156 68.6238 94.2835 70.0431V66.1191H95.2937V71.8715H94.2835C93.6156 70.5357 92.8725 69.1832 91.8289 67.6887ZM102.381 71.8715H100.394V66.1191H102.381C103.775 66.1191 105.07 67.0959 105.07 69.0078C105.07 70.9448 103.775 71.8715 102.381 71.8715ZM101.404 71.0199H102.031C103.333 71.0199 104.018 70.3353 104.018 69.0078C104.018 67.6971 103.391 66.9707 102.031 66.9707H101.404V71.0199ZM110.849 66.1191V70.5858C110.849 70.8196 110.932 71.0199 111.325 71.0199H113.571V71.8715H111.191C110.264 71.8465 109.855 71.5626 109.839 70.7027V66.1191H110.849ZM119.079 69.3335V70.6609C119.079 70.853 119.146 71.0199 119.471 71.0199H121.734V71.8715H119.421C118.495 71.8465 118.086 71.5626 118.069 70.7027V66.1191H121.734V66.9707H119.079V68.4819H121.55V69.3335H119.079Z" fill="white"/>
<defs>
<filter id="filter0_d_7751_26157" x="5.24521e-05" y="12.1547" width="33.7955" height="51.7485" filterUnits="userSpaceOnUse" color-interpolation-filters="sRGB">
<feFlood flood-opacity="0" result="BackgroundImageFix"/>
<feColorMatrix in="SourceAlpha" type="matrix" values="0 0 0 0 0 0 0 0 0 0 0 0 0 0 0 0 0 0 127 0" result="hardAlpha"/>
<feOffset/>
<feGaussianBlur stdDeviation="4.7717"/>
<feComposite in2="hardAlpha" operator="out"/>
<feColorMatrix type="matrix" values="0 0 0 0 0.376471 0 0 0 0 0.588235 0 0 0 0 1 0 0 0 1 0"/>
<feBlend mode="normal" in2="BackgroundImageFix" result="effect1_dropShadow_7751_26157"/>
<feBlend mode="normal" in="SourceGraphic" in2="effect1_dropShadow_7751_26157" result="shape"/>
</filter>
<filter id="filter1_dd_7751_26157" x="24.9727" y="3.8147e-06" width="170.6" height="75.171" filterUnits="userSpaceOnUse" color-interpolation-filters="sRGB">
<feFlood flood-opacity="0" result="BackgroundImageFix"/>
<feColorMatrix in="SourceAlpha" type="matrix" values="0 0 0 0 0 0 0 0 0 0 0 0 0 0 0 0 0 0 127 0" result="hardAlpha"/>
<feOffset/>
<feGaussianBlur stdDeviation="10.0604"/>
<feComposite in2="hardAlpha" operator="out"/>
<feColorMatrix type="matrix" values="0 0 0 0 0.430769 0 0 0 0 0.520271 0 0 0 0 1 0 0 0 1 0"/>
<feBlend mode="normal" in2="BackgroundImageFix" result="effect1_dropShadow_7751_26157"/>
<feColorMatrix in="SourceAlpha" type="matrix" values="0 0 0 0 0 0 0 0 0 0 0 0 0 0 0 0 0 0 127 0" result="hardAlpha"/>
<feOffset/>
<feGaussianBlur stdDeviation="12.1956"/>
<feComposite in2="hardAlpha" operator="out"/>
<feColorMatrix type="matrix" values="0 0 0 0 0.430769 0 0 0 0 0.520271 0 0 0 0 1 0 0 0 1 0"/>
<feBlend mode="normal" in2="effect1_dropShadow_7751_26157" result="effect2_dropShadow_7751_26157"/>
<feBlend mode="normal" in="SourceGraphic" in2="effect2_dropShadow_7751_26157" result="shape"/>
</filter>
</defs>
</svg>
